<?xml version="1.0" standalone="no"?><!DOCTYPE svg PUBLIC "-//W3C//DTD SVG 1.1//EN" "http://www.w3.org/Graphics/SVG/1.1/DTD/svg11.dtd"><svg class="icon" width="200px" height="200.00px" viewBox="0 0 1024 1024" version="1.1" xmlns="http://www.w3.org/2000/svg"><path d="M973.693156 383.072237L849.824261 54.051882A83.329984 83.329984 0 0 0 757.690371 1.228452L412.904884 59.375173a83.329984 83.329984 0 0 0-58.351464 40.948395L61.567653 607.059959A124.892605 124.892605 0 0 0 107.429855 778.019509l396.994692 228.90153A124.892605 124.892605 0 0 0 675.793581 961.263578l292.781026-507.145875a83.329984 83.329984 0 0 0 5.118549-71.045466z m-50.161784 45.452719L630.750346 935.670831a73.707111 73.707111 0 0 1-100.733052 26.616457L133.022602 733.385758a73.911853 73.911853 0 0 1-27.025941-100.733052L398.982429 125.506831a31.939748 31.939748 0 0 1 22.521618-15.56039l344.990229-58.351463h5.323292a32.349232 32.349232 0 0 1 30.09707 20.474198l123.868896 329.225097a31.939748 31.939748 0 0 1-2.252162 27.230683z"  /><path  d="M699.134166 211.293719a116.293442 116.293442 0 1 0 42.586331 158.879774 115.679217 115.679217 0 0 0-42.586331-158.879774z m-1.842678 133.287027A65.107948 65.107948 0 0 1 608.433471 368.535557a65.107948 65.107948 0 0 1-23.750069-88.858018 65.107948 65.107948 0 0 1 88.858017-23.750069 65.107948 65.107948 0 0 1 23.750069 88.858018zM497.258578 810.982967L280.846309 685.88562a25.592747 25.592747 0 1 0-25.592747 44.224267L471.051605 855.207234a25.592747 25.592747 0 0 0 25.592747-44.224267z"  /></svg>